<?xml version="1.0" standalone="no"?>
<!DOCTYPE svg PUBLIC "-//W3C//DTD SVG 20010904//EN"
 "http://www.w3.org/TR/2001/REC-SVG-20010904/DTD/svg10.dtd">
<svg version="1.0" xmlns="http://www.w3.org/2000/svg"
 width="202.000000pt" height="202.000000pt" viewBox="0 0 202.000000 202.000000"
 preserveAspectRatio="xMidYMid meet">
<metadata>
Created by potrace 1.11, written by Peter Selinger 2001-2013
</metadata>
<g transform="translate(0.000000,202.000000) scale(0.100000,-0.100000)"
fill="#000000" stroke="none">
<path d="M10 1010 l0 -1000 1000 0 1000 0 0 1000 0 1000 -1000 0 -1000 0 0
-1000z m681 941 c20 -20 29 -39 29 -61 0 -43 -47 -90 -90 -90 -43 0 -90 47
-90 90 0 43 47 90 90 90 22 0 41 -9 61 -29z m250 0 c20 -20 29 -39 29 -61 0
-43 -47 -90 -90 -90 -43 0 -90 47 -90 90 0 43 47 90 90 90 22 0 41 -9 61 -29z
m250 0 c20 -20 29 -39 29 -61 0 -43 -47 -90 -90 -90 -43 0 -90 47 -90 90 0 43
47 90 90 90 22 0 41 -9 61 -29z m250 0 c20 -20 29 -39 29 -61 0 -43 -47 -90
-90 -90 -22 0 -41 9 -61 29 -39 40 -39 82 0 122 20 20 39 29 61 29 22 0 41 -9
61 -29z m-500 -250 c20 -20 29 -39 29 -61 0 -43 -47 -90 -90 -90 -43 0 -90 47
-90 90 0 43 47 90 90 90 22 0 41 -9 61 -29z m250 0 c20 -20 29 -39 29 -61 0
-43 -47 -90 -90 -90 -43 0 -90 47 -90 90 0 43 47 90 90 90 22 0 41 -9 61 -29z
m-500 -500 c20 -20 29 -39 29 -61 0 -43 -47 -90 -90 -90 -43 0 -90 47 -90 90
0 22 9 41 29 61 40 39 82 39 122 0z m750 0 c20 -20 29 -39 29 -61 0 -43 -47
-90 -90 -90 -43 0 -90 47 -90 90 0 22 9 41 29 61 40 39 82 39 122 0z m-750
-250 c20 -20 29 -39 29 -61 0 -43 -47 -90 -90 -90 -43 0 -90 47 -90 90 0 22 9
41 29 61 40 39 82 39 122 0z m250 0 c20 -20 29 -39 29 -61 0 -43 -47 -90 -90
-90 -43 0 -90 47 -90 90 0 22 9 41 29 61 40 39 82 39 122 0z m250 0 c20 -20
29 -39 29 -61 0 -43 -47 -90 -90 -90 -43 0 -90 47 -90 90 0 22 9 41 29 61 40
39 82 39 122 0z m250 0 c20 -20 29 -39 29 -61 0 -43 -47 -90 -90 -90 -43 0
-90 47 -90 90 0 22 9 41 29 61 40 39 82 39 122 0z m-750 -250 c20 -20 29 -39
29 -61 0 -22 -9 -41 -29 -61 -40 -39 -82 -39 -122 0 -20 20 -29 39 -29 61 0
22 9 41 29 61 40 39 82 39 122 0z m250 0 c20 -20 29 -39 29 -61 0 -22 -9 -41
-29 -61 -40 -39 -82 -39 -122 0 -20 20 -29 39 -29 61 0 22 9 41 29 61 40 39
82 39 122 0z m250 0 c20 -20 29 -39 29 -61 0 -22 -9 -41 -29 -61 -40 -39 -82
-39 -122 0 -20 20 -29 39 -29 61 0 22 9 41 29 61 40 39 82 39 122 0z m250 0
c20 -20 29 -39 29 -61 0 -43 -47 -90 -90 -90 -43 0 -90 47 -90 90 0 22 9 41
29 61 40 39 82 39 122 0z m-750 -250 c20 -20 29 -39 29 -61 0 -43 -47 -90 -90
-90 -43 0 -90 47 -90 90 0 22 9 41 29 61 20 20 39 29 61 29 22 0 41 -9 61 -29z
m250 0 c20 -20 29 -39 29 -61 0 -43 -47 -90 -90 -90 -43 0 -90 47 -90 90 0 43
47 90 90 90 22 0 41 -9 61 -29z m250 0 c20 -20 29 -39 29 -61 0 -43 -47 -90
-90 -90 -43 0 -90 47 -90 90 0 43 47 90 90 90 22 0 41 -9 61 -29z m250 0 c20
-20 29 -39 29 -61 0 -43 -47 -90 -90 -90 -43 0 -90 47 -90 90 0 43 47 90 90
90 22 0 41 -9 61 -29z m-750 -250 c20 -20 29 -39 29 -61 0 -43 -47 -90 -90
-90 -43 0 -90 47 -90 90 0 43 47 90 90 90 22 0 41 -9 61 -29z m250 0 c20 -20
29 -39 29 -61 0 -43 -47 -90 -90 -90 -22 0 -41 9 -61 29 -20 20 -29 39 -29 61
0 43 47 90 90 90 22 0 41 -9 61 -29z m250 0 c20 -20 29 -39 29 -61 0 -43 -47
-90 -90 -90 -22 0 -41 9 -61 29 -20 20 -29 39 -29 61 0 43 47 90 90 90 22 0
41 -9 61 -29z m250 0 c20 -20 29 -39 29 -61 0 -43 -47 -90 -90 -90 -43 0 -90
47 -90 90 0 22 9 41 29 61 20 20 39 29 61 29 22 0 41 -9 61 -29z"/>
</g>
</svg>
